<svg viewBox="0 0 145 144" fill="none" xmlns="http://www.w3.org/2000/svg">
<path d="M48.7895 71.7109V22.053L121.263 71.7109L48.7895 121.369V71.7109Z" fill="#EDEDF7"/>
<path fill-rule="evenodd" clip-rule="evenodd" d="M144.526 72.1581C144.526 111.69 112.279 143.737 72.5 143.737C32.721 143.737 0.473694 111.69 0.473694 72.1581C0.473694 32.6261 32.721 0.579102 72.5 0.579102C112.279 0.579102 144.526 32.6261 144.526 72.1581ZM72.5 136.579C108.301 136.579 137.324 107.737 137.324 72.1581C137.324 36.5793 108.301 7.737 72.5 7.737C36.6989 7.737 7.67633 36.5793 7.67633 72.1581C7.67633 107.737 36.6989 136.579 72.5 136.579Z" fill="#EDEDF7"/>
</svg>
